# xmcd
#
# Track frame offsets: 
#        150
#        19395
#        36463
#        64517
#        83971
#        110823
#        114861
#        138505
#        163855
#        215585
#        241473
#        284634
#
# Disc length: 4408 seconds
#
# Revision: 3
# Processed by: cddbd v1.5.2PL0 Copyright (c) Steve Scherf et al.
# Submitted via: ExactAudioCopy v1.3
#
DISCID=b811360c
DTITLE=Gary Moore - Blues For Jimi
DYEAR=2012
DGENRE=Blues Rock
TTITLE0=Purple Haze
TTITLE1=Manic Depression
TTITLE2=Foxey Lady
TTITLE3=The Wind Cries Mary
TTITLE4=I Don't Live Today
TTITLE5=My Angel
TTITLE6=Angel
TTITLE7=Fire
TTITLE8=Red House
TTITLE9=Stone Free
TTITLE10=Hey Joe
TTITLE11=Voodoo Child [Slight Return]
EXTD=YEAR: 2012
EXTT0=
EXTT1=
EXTT2=
EXTT3=
EXTT4=
EXTT5=
EXTT6=
EXTT7=
EXTT8=
EXTT9=
EXTT10=
EXTT11=
PLAYORDER=
